<svg width="125" height="31" viewBox="0 0 125 31" fill="none" xmlns="http://www.w3.org/2000/svg">
<path d="M26.3952 10.5967L14.6432 22.5112L10.6413 18.4547L6.49219 22.6594L14.6432 30.9232L30.5435 14.8031L26.3952 10.5967Z" fill="#0E63E7"/>
<path fill-rule="evenodd" clip-rule="evenodd" d="M4.58933 11.4655L0 16.1192L4.14747 20.324L15.9003 8.40868L19.9022 12.4669L24.0496 8.26126L15.9003 0L10.4549 5.51881V0.0118611H4.58933V11.4655ZM81.1661 23.2139V3.42278H84.6223V23.2139H81.1661ZM110.435 11.9357V23.2139H112.763V11.9323H116.297V9.65494H112.763V9.24828C112.763 6.98902 113.941 5.95851 116.297 6.15676V3.88028C114.742 3.65353 113.164 4.09593 111.946 5.10028C110.874 6.19875 110.323 7.71181 110.433 9.25167V9.65833H108.289V11.9357H110.435ZM37.5021 11.3528C34.9499 14.2491 34.9499 18.6231 37.5021 21.5194C38.6733 22.8549 40.3585 23.6114 42.1224 23.5934C43.7999 23.6847 45.417 22.947 46.4607 21.6143V23.2139H49.9144V4.23611H46.4607V11.2579C45.4163 9.92618 43.7997 9.18871 42.1224 9.27878C40.3585 9.26083 38.6733 10.0173 37.5021 11.3528ZM93.0553 9.27878C91.3004 9.26516 89.6257 10.0216 88.4635 11.3528C85.9101 14.2487 85.9101 18.6235 88.4635 21.5194C89.6257 22.8506 91.3004 23.6071 93.0553 23.5934C94.7397 23.6808 96.3632 22.9447 97.4204 21.6143V23.2139H100.875V9.65833H97.4204V11.2579C96.363 9.92775 94.7396 9.19171 93.0553 9.27878ZM91.0477 19.1913C89.6529 17.6272 89.6529 15.2484 91.0477 13.6843H91.0502C91.7476 12.9701 92.7073 12.5821 93.6989 12.6134C94.6947 12.5832 95.6586 12.9707 96.3626 13.6843C97.777 15.2407 97.777 17.6349 96.3626 19.1913C95.6588 19.9052 94.6947 20.2928 93.6989 20.2622C92.7064 20.2947 91.7455 19.9065 91.0477 19.1913ZM68.7797 21.533C66.0853 18.6829 66.0853 14.1902 68.7797 11.3401C70.1074 9.97433 71.9355 9.22783 73.8277 9.27878C75.0777 9.2647 76.3083 9.59284 77.3893 10.2285C78.4254 10.8249 79.2711 11.7093 79.8263 12.777L76.8537 14.5392C76.5889 13.9823 76.1642 13.5193 75.6353 13.2107C75.0793 12.8822 74.4454 12.7135 73.8017 12.7227C72.8386 12.6932 71.907 13.0715 71.2309 13.7665C69.8734 15.2712 69.8734 17.5756 71.2309 19.0803C71.907 19.7753 72.8386 20.1536 73.8017 20.1241C74.4528 20.1355 75.0951 19.9715 75.6629 19.6488C76.1932 19.3481 76.6188 18.8888 76.8814 18.3339L79.8807 20.069C79.2929 21.1342 78.4326 22.0195 77.3902 22.6318C74.5978 24.2446 71.0888 23.7958 68.7806 21.5305L68.7797 21.533ZM51.8417 16.4361C51.7845 18.3514 52.5113 20.2056 53.8502 21.5601H53.851C55.2753 22.9519 57.2026 23.6888 59.1801 23.5977C61.4929 23.7275 63.7054 22.6283 65.0189 20.6968L62.2338 19.0701C61.5149 19.9936 60.3936 20.5004 59.2345 20.4257C57.1809 20.4257 55.922 19.5759 55.4578 17.8764H65.5536C65.6398 17.4012 65.6843 16.9192 65.6867 16.4361C65.7383 14.5478 65.0499 12.7156 63.772 11.3392C62.5204 9.97586 60.7492 9.2247 58.9115 9.27793C57.0073 9.21035 55.1621 9.95296 53.8234 11.3257C52.5039 12.6855 51.7884 14.5307 51.8417 16.4361ZM56.6118 13.1421C55.9839 13.6499 55.5545 14.3669 55.4 15.1653H62.2288C62.0948 14.3471 61.6594 13.6108 61.0103 13.1048C60.4004 12.6548 59.6628 12.417 58.9081 12.4271C58.0839 12.3944 57.2732 12.6466 56.6093 13.1421H56.6118ZM40.0964 13.6843C38.6843 15.2417 38.6843 17.634 40.0964 19.1913C40.8005 19.9053 41.7649 20.2928 42.761 20.2622C43.7534 20.2945 44.7142 19.9064 45.4121 19.1913C46.8069 17.6272 46.8069 15.2484 45.4121 13.6843C44.7141 12.9695 43.7534 12.5814 42.761 12.6134C41.7661 12.5841 40.8033 12.9716 40.0998 13.6843H40.0964ZM103.239 21.2867C103.076 21.8965 103.247 22.5482 103.687 22.9962C104.372 23.6854 105.479 23.6854 106.164 22.9962C106.824 22.2989 106.824 21.1992 106.164 20.5019C105.724 20.054 105.081 19.8777 104.478 20.0396C103.875 20.2015 103.402 20.6769 103.239 21.2867ZM117.532 9.65833H119.862V11.9357C120.583 10.2813 122.259 9.26977 124.039 9.41433V11.8814C122.978 11.8017 121.925 12.1309 121.093 12.8032C120.208 13.6252 119.753 14.8184 119.862 16.0294V23.2139H117.532V9.65833Z" fill="#2A2857"/>
</svg>
