<svg width="504" height="718" viewBox="0 0 504 718" fill="none" xmlns="http://www.w3.org/2000/svg">
<g clip-path="url(#clip0_813_42902)">
<path d="M-184.095 629.932L301.603 910.317H364.039L-185.725 592.905L-184.095 629.932Z" fill="#37C9A5" stroke="#0E63E7" stroke-width="2.03818" stroke-miterlimit="10" stroke-linejoin="round"/>
<path d="M364.039 910.318H738.723V59.1755L-185.725 592.906L364.039 910.318Z" fill="#CDFAEF" stroke="#0E63E7" stroke-width="2.03818" stroke-miterlimit="10" stroke-linejoin="round"/>
<path d="M633.618 537.806C633.754 537.67 633.958 537.534 634.094 537.398L434.489 422.105C432.043 422.988 429.665 424.075 427.491 425.366L140.584 591.002L186.511 617.498L185.967 617.838L386.931 733.878L673.77 568.31C675.944 567.019 677.847 565.661 679.409 564.234L633.618 537.806Z" fill="#37C9A5" stroke="#0E63E7" stroke-width="2.03818" stroke-miterlimit="10" stroke-linejoin="round"/>
<path d="M391.957 371.899V434.199L345.418 463.549V401.249L391.957 371.899Z" fill="#CDFAEF" stroke="#0E63E7" stroke-width="2.03818" stroke-miterlimit="10" stroke-linejoin="round"/>
<path d="M345.419 463.481L298.949 434.199V371.899L345.419 401.249V463.481Z" fill="#CDFAEF" stroke="#0E63E7" stroke-width="2.03818" stroke-miterlimit="10" stroke-linejoin="round"/>
<path d="M391.958 360.214V422.515L345.42 451.864V389.564L391.958 360.214Z" fill="#CDFAEF" stroke="#0E63E7" stroke-width="2.03818" stroke-miterlimit="10" stroke-linejoin="round"/>
<path d="M391.958 360.214V422.515L345.42 451.864V389.564L391.958 360.214Z" fill="#CDFAEF" stroke="#0E63E7" stroke-width="2.03818" stroke-miterlimit="10" stroke-linejoin="round"/>
<path d="M345.419 451.864L298.949 422.515V360.214L345.419 389.564V451.864Z" fill="#F0FFFB" stroke="#0E63E7" stroke-width="2.03818" stroke-miterlimit="10" stroke-linecap="round" stroke-linejoin="round"/>
<path d="M391.958 360.213L345.419 389.563L298.949 360.213L345.419 330.932L391.958 360.213Z" fill="#CDFAEF" stroke="#0E63E7" stroke-width="2.03818" stroke-miterlimit="10" stroke-linejoin="round"/>
<path d="M86.5743 464.091L278.638 353.214L220.143 319.448L28.0107 430.325L86.5743 464.091Z" fill="#F0FFFB" stroke="#0E63E7" stroke-width="2.03818" stroke-miterlimit="10" stroke-linecap="round" stroke-linejoin="round"/>
<path d="M86.8461 464.362L28.0107 430.392V542.764L86.8461 576.665V464.362Z" fill="#F0FFFB" stroke="#0E63E7" stroke-width="2.03818" stroke-miterlimit="10" stroke-linecap="round" stroke-linejoin="round"/>
<path d="M99.6891 457.365L280.068 353.214V465.518L267.295 472.923L86.9165 577.074V464.77L99.6891 457.365Z" fill="#CDFAEF"/>
<path d="M99.6891 457.365L280.068 353.214V465.518L267.295 472.923L86.9165 577.074V464.77L99.6891 457.365Z" stroke="#0E63E7" stroke-width="2.03818" stroke-miterlimit="10" stroke-linejoin="round"/>
<path d="M86.6434 557.032L266.954 452.881L279.795 445.476V468.44L266.954 475.845L86.6434 579.996L27.8081 546.094V523.063L86.6434 557.032Z" fill="#37C9A5" stroke="#0E63E7" stroke-width="2.03818" stroke-miterlimit="10" stroke-linejoin="round"/>
<path d="M86.9146 544.599C86.9146 546.026 86.9146 578.025 86.9146 578.025V544.599Z" fill="#F0FFFB"/>
<path d="M86.9146 544.599C86.9146 546.026 86.9146 578.025 86.9146 578.025" stroke="#0E63E7" stroke-width="2.03818" stroke-miterlimit="10" stroke-linecap="round" stroke-linejoin="round"/>
<path d="M160.219 536.99C159.675 537.669 160.287 423.124 160.219 421.901V536.99Z" fill="#F0FFFB"/>
<path d="M160.219 536.99C159.675 537.669 160.287 423.124 160.219 421.901" stroke="#0E63E7" stroke-width="2.03818" stroke-miterlimit="10" stroke-linecap="round" stroke-linejoin="round"/>
<path d="M221.297 501.595C220.754 502.138 221.297 387.253 221.297 387.253V501.595Z" fill="#F0FFFB"/>
<path d="M221.297 501.595C220.754 502.138 221.297 387.253 221.297 387.253" stroke="#0E63E7" stroke-width="2.03818" stroke-miterlimit="10" stroke-linecap="round" stroke-linejoin="round"/>
<path d="M221.163 417.009C221.163 417.348 280.814 382.563 280.814 382.563L221.163 417.009Z" fill="#F0FFFB"/>
<path d="M221.163 417.009C221.163 417.348 280.814 382.563 280.814 382.563" stroke="#0E63E7" stroke-width="2.03818" stroke-miterlimit="10" stroke-linecap="round" stroke-linejoin="round"/>
<path d="M221.163 449.212C221.163 449.552 280.814 414.767 280.814 414.767L221.163 449.212Z" fill="#F0FFFB"/>
<path d="M221.163 449.212C221.163 449.552 280.814 414.767 280.814 414.767" stroke="#0E63E7" stroke-width="2.03818" stroke-miterlimit="10" stroke-linecap="round" stroke-linejoin="round"/>
<path d="M154.309 481.758V460.764" stroke="#0E63E7" stroke-width="2.03818" stroke-miterlimit="10" stroke-linecap="round" stroke-linejoin="round"/>
<path d="M166.54 474.419V453.426" stroke="#0E63E7" stroke-width="2.03818" stroke-miterlimit="10" stroke-linecap="round" stroke-linejoin="round"/>
<path d="M148.53 674.638V674.57L143.095 671.445V671.377L122.917 659.759L67.9541 628.1V696.854L168.708 755.01V686.256L148.53 674.638Z" fill="#F0FFFB" stroke="#0E63E7" stroke-width="2.03818" stroke-miterlimit="10" stroke-linejoin="round"/>
<path d="M168.232 685.984L179.917 679.258V679.054L217.284 657.246V725.593L179.917 748.352V748.284L168.232 755.35V685.984Z" fill="#CDFAEF" stroke="#0E63E7" stroke-width="2.03818" stroke-miterlimit="10" stroke-linejoin="round"/>
<path d="M116.87 598.682L105.321 605.408H105.253L67.6143 627.08L93.2953 642.503L130.39 663.904V663.971L168.028 685.644L179.646 678.986L217.284 657.245L116.87 598.682Z" fill="white" stroke="#0E63E7" stroke-width="2.03818" stroke-miterlimit="10" stroke-linejoin="round"/>
<path d="M249.148 732.861V732.793L243.645 729.668L223.535 718.05V717.982L168.573 686.323V755.077L269.326 813.233V744.478L249.148 732.861Z" fill="#F0FFFB" stroke="#0E63E7" stroke-width="2.03818" stroke-miterlimit="10" stroke-linejoin="round"/>
<path d="M268.852 744.207L280.537 737.481V737.277L317.904 715.536V783.883L280.537 806.575V806.507L268.852 813.572V744.207Z" fill="#CDFAEF" stroke="#0E63E7" stroke-width="2.03818" stroke-miterlimit="10" stroke-linejoin="round"/>
<path d="M217.49 656.972L205.94 663.63H205.872L168.234 685.371L193.915 700.725L231.01 722.194L268.648 743.866L280.266 737.208L317.904 715.468L217.49 656.972Z" fill="white" stroke="#0E63E7" stroke-width="2.03818" stroke-miterlimit="10" stroke-linejoin="round"/>
<path d="M235.356 666.012L197.853 642.369H197.785V689.723H197.853L235.356 666.012Z" fill="#37C9A5" stroke="#0E63E7" stroke-width="2.03818" stroke-miterlimit="10" stroke-linejoin="round"/>
<path d="M197.785 642.369L166.33 662.207L160.215 658.607V666.012L197.514 689.519C197.446 677.222 197.718 649.095 197.785 642.369Z" fill="#CDFAEF" stroke="#0E63E7" stroke-width="2.03818" stroke-miterlimit="10" stroke-linejoin="round"/>
<path d="M197.785 640.942C197.785 640.942 197.785 641.486 197.785 642.369V640.942Z" fill="#CDFAEF" stroke="#0E63E7" stroke-width="2.03818" stroke-miterlimit="10" stroke-linejoin="round"/>
<path d="M197.785 642.369C197.717 649.095 197.446 677.222 197.581 689.587L197.785 689.723V642.369Z" fill="#CDFAEF" stroke="#0E63E7" stroke-width="2.03818" stroke-miterlimit="10" stroke-linejoin="round"/>
<path d="M235.358 658.605L197.855 682.316L160.285 658.605L197.855 634.962L235.358 658.605Z" fill="white" stroke="#0E63E7" stroke-width="2.03818" stroke-miterlimit="10" stroke-linejoin="round"/>
<path d="M204.987 640.939L204.919 640.871V629.933L197.921 631.563L190.787 629.865V644.947L190.855 645.015V655.478C190.312 656.837 190.991 658.263 192.758 659.35C195.543 660.981 200.095 660.981 202.948 659.35C204.511 658.467 205.19 657.244 205.055 656.089V640.939H204.987Z" fill="#F0FFFB" stroke="#0E63E7" stroke-width="2.03818" stroke-miterlimit="10" stroke-linejoin="round"/>
<path d="M202.95 632.447C200.164 634.077 195.612 634.077 192.759 632.447C189.974 630.816 189.974 628.166 192.759 626.604C195.545 624.973 200.096 624.973 202.95 626.604C205.803 628.234 205.735 630.816 202.95 632.447Z" fill="#F0FFFB" stroke="#0E63E7" stroke-width="2.03818" stroke-miterlimit="10" stroke-linejoin="round"/>
<path d="M164.765 626.536L183.245 565.867L174.005 535.566L164.765 540.865V626.536Z" fill="#CDFAEF" stroke="#0E63E7" stroke-width="2.03818" stroke-miterlimit="10" stroke-linejoin="round"/>
<path d="M257.977 680.615L267.216 674.297V588.625L257.977 594.944V680.615Z" fill="#CDFAEF" stroke="#0E63E7" stroke-width="2.03818" stroke-miterlimit="10" stroke-linejoin="round"/>
<path d="M267.217 588.014L137.725 514.368L128.417 519.667L221.697 573.407L257.909 594.333L267.217 588.014Z" fill="white" stroke="#0E63E7" stroke-width="2.03818" stroke-miterlimit="10" stroke-linejoin="round"/>
<path d="M164.765 540.727V540.863L128.417 519.87V526.8V599.087V605.949L221.698 659.825V659.689L257.977 680.614V673.752V601.465V594.535L164.765 540.727Z" fill="#F0FFFB" stroke="#0E63E7" stroke-width="2.03818" stroke-miterlimit="10" stroke-linecap="round" stroke-linejoin="round"/>
<path d="M515.674 578.705L365.324 491.878V512.328L515.674 599.154V578.705Z" fill="#F0FFFB" stroke="#0E63E7" stroke-width="2.03818" stroke-miterlimit="10" stroke-linecap="round" stroke-linejoin="round"/>
<path d="M356.423 408.11L362.334 404.645L383.938 392.212V392.144L442.774 358.242V431.821L334.886 494.053V436.033C334.886 426.453 340.05 417.553 348.338 412.73L356.423 408.11Z" fill="white" stroke="#0E63E7" stroke-width="2.03818" stroke-miterlimit="10" stroke-linejoin="round"/>
<path d="M387.539 426.93L393.45 423.465L415.055 411.032V410.964L473.89 377.063V450.641L365.935 512.941V454.921C365.935 445.342 371.098 436.442 379.387 431.618L387.539 426.93Z" fill="#F0FFFB" stroke="#0E63E7" stroke-width="2.03818" stroke-miterlimit="10" stroke-linejoin="round"/>
<path d="M367.295 416.738H367.363L385.774 427.337L473.484 376.246L454.732 365.376L454.665 365.444L442.3 358.242L354.59 409.401L367.295 416.738Z" fill="white" stroke="#0E63E7" stroke-width="2.03818" stroke-miterlimit="10" stroke-linejoin="round"/>
<path d="M334.82 436.168V493.305L365.936 512.26V455.055L334.82 436.168Z" fill="#CDFAEF" stroke="#0E63E7" stroke-width="2.03818" stroke-miterlimit="10" stroke-linejoin="round"/>
<path d="M582.187 423.6V423.532L576.345 420.203V420.135L554.74 407.702L554.468 407.498V407.227L532.931 394.794V394.726L527.021 391.397V391.329L505.416 378.896L446.649 344.994V418.573L495.905 447.039V447.379L603.792 509.611V436.033L582.187 423.6Z" fill="#F0FFFB" stroke="#0E63E7" stroke-width="2.03818" stroke-miterlimit="10" stroke-linejoin="round"/>
<path d="M585.586 388.814H585.654L478.174 326.106L465.741 333.308V333.24L446.99 344.11L496.314 372.849V372.917L603.793 435.624L634.978 417.621L585.586 388.814Z" fill="white" stroke="#0E63E7" stroke-width="2.03818" stroke-miterlimit="10" stroke-linejoin="round"/>
<path d="M377.687 463.954V493.848C377.687 499.487 380.676 504.718 385.636 507.571L538.363 595.824C542.236 598.066 546.992 595.281 546.992 590.865V555.129C546.992 553.091 545.904 551.188 544.138 550.169L386.315 459.063C382.443 456.753 377.687 459.538 377.687 463.954Z" fill="#F0FFFB" stroke="#0E63E7" stroke-width="2.03818" stroke-miterlimit="10" stroke-linejoin="round"/>
<path d="M654.269 515.046L468.863 408.042L442.638 423.192L442.57 423.124L382.716 457.706L568.122 564.778L594.414 549.559V549.627L654.269 515.046Z" fill="white" stroke="#0E63E7" stroke-width="2.03818" stroke-miterlimit="10" stroke-linejoin="round"/>
<path d="M458.878 502.002C458.878 502.477 545.297 452.135 545.297 452.135L458.878 502.002Z" fill="#F0FFFB"/>
<path d="M458.878 502.002C458.878 502.477 545.297 452.135 545.297 452.135" stroke="#0E63E7" stroke-width="2.03818" stroke-miterlimit="10" stroke-linecap="round" stroke-linejoin="round"/>
<path d="M222.317 321.76C222.792 321.556 228.839 308.716 222.86 296.283C222.792 296.147 222.589 295.808 222.521 295.672C222.521 295.672 214.98 313.608 218.173 319.586C221.094 325.089 222.317 321.76 222.317 321.76Z" fill="#37C9A5" stroke="#0E63E7" stroke-width="2.03818" stroke-miterlimit="10" stroke-linejoin="round"/>
<path d="M240.386 354.168L240.25 353.693C240.182 352.945 240.046 352.266 239.706 351.519L234.339 329.371L221.159 334.942L207.979 329.371L202.679 351.043C202.204 352.062 201.932 353.081 201.932 354.1C201.932 356.954 203.834 359.807 207.571 361.913C215.044 366.262 227.205 366.262 234.747 361.913C238.483 359.739 240.386 356.954 240.386 354.1C240.386 354.168 240.386 354.168 240.386 354.168Z" fill="white" stroke="#0E63E7" stroke-width="2.03818" stroke-miterlimit="10" stroke-linejoin="round"/>
<path d="M230.398 333.311C225.234 336.3 216.946 336.3 211.782 333.311C209.608 332.02 208.317 330.458 207.978 328.759C207.57 326.517 208.793 324.275 211.782 322.577C216.946 319.587 225.234 319.587 230.398 322.577C235.561 325.498 235.561 330.322 230.398 333.311Z" fill="#F0FFFB" stroke="#0E63E7" stroke-width="2.03818" stroke-miterlimit="10" stroke-linecap="round" stroke-linejoin="round"/>
<path d="M224.762 322.303C225.034 321.827 221.705 308.036 209.272 302.125C209.136 302.057 208.729 301.921 208.593 301.853C208.593 301.853 213.96 320.604 220.142 323.254C225.917 325.7 224.762 322.303 224.762 322.303Z" fill="#37C9A5" stroke="#0E63E7" stroke-width="2.03818" stroke-miterlimit="10" stroke-linejoin="round"/>
<path d="M218.173 324.07C217.901 323.595 221.162 309.124 233.595 303.009C233.731 302.941 234.138 302.805 234.274 302.737C234.274 302.737 229.043 322.304 222.793 325.089C217.018 327.603 218.173 324.07 218.173 324.07Z" fill="#37C9A5" stroke="#0E63E7" stroke-width="2.03818" stroke-miterlimit="10" stroke-linejoin="round"/>
<path d="M222.52 328.691C222.724 328.08 217.289 311.571 202.07 305.796C201.867 305.728 201.459 305.592 201.255 305.524C201.255 305.524 209.612 327.876 217.221 330.39C224.219 332.7 222.52 328.691 222.52 328.691Z" fill="#37C9A5" stroke="#0E63E7" stroke-width="2.03818" stroke-miterlimit="10" stroke-linejoin="round"/>
<path d="M220.143 328.691C219.939 328.08 225.374 311.571 240.593 305.796C240.797 305.728 241.204 305.592 241.408 305.524C241.408 305.524 233.051 327.876 225.442 330.39C218.377 332.7 220.143 328.691 220.143 328.691Z" fill="#37C9A5" stroke="#0E63E7" stroke-width="2.03818" stroke-miterlimit="10" stroke-linejoin="round"/>
<path d="M185.901 332.697L184.475 331.814L179.107 328.756L164.5 320.332V338.539L191.268 383.991V339.559C191.268 337.181 189.978 335.007 187.94 333.784L185.901 332.697Z" fill="white" stroke="#0E63E7" stroke-width="2.03818" stroke-miterlimit="10" stroke-linejoin="round"/>
<path d="M178.155 337.384L176.728 336.501L171.361 333.444L156.754 325.019V373.256L183.522 388.678V344.246C183.522 341.868 182.231 339.694 180.193 338.471L178.155 337.384Z" fill="#F0FFFB" stroke="#0E63E7" stroke-width="2.03818" stroke-miterlimit="10" stroke-linejoin="round"/>
<path d="M183.182 334.803L178.63 337.452L156.89 324.816L161.51 322.098L164.635 320.332L186.307 333.036L183.182 334.803Z" fill="white" stroke="#0E63E7" stroke-width="2.03818" stroke-miterlimit="10" stroke-linejoin="round"/>
<path d="M191.197 339.627V383.855L183.52 388.543V344.315L191.197 339.627Z" fill="#CDFAEF" stroke="#0E63E7" stroke-width="2.03818" stroke-miterlimit="10" stroke-linejoin="round"/>
<path d="M163.073 347.848L161.646 346.965L156.279 343.908L141.672 335.483V353.691L168.44 399.142V354.71C168.44 352.332 167.149 350.158 165.111 348.935L163.073 347.848Z" fill="white" stroke="#0E63E7" stroke-width="2.03818" stroke-miterlimit="10" stroke-linejoin="round"/>
<path d="M155.394 352.536L153.968 351.652L148.601 348.595L133.994 340.171V388.407L160.762 403.83V359.397C160.762 357.02 159.471 354.846 157.433 353.623L155.394 352.536Z" fill="#F0FFFB" stroke="#0E63E7" stroke-width="2.03818" stroke-miterlimit="10" stroke-linejoin="round"/>
<path d="M160.355 350.022L155.803 352.672L134.063 339.967L138.683 337.318H138.751L141.808 335.483L163.548 348.188L160.355 350.022Z" fill="white" stroke="#0E63E7" stroke-width="2.03818" stroke-miterlimit="10" stroke-linejoin="round"/>
<path d="M168.438 354.847V399.007L160.693 403.695V359.535L168.438 354.847Z" fill="#CDFAEF" stroke="#0E63E7" stroke-width="2.03818" stroke-miterlimit="10" stroke-linejoin="round"/>
<path d="M140.313 360.689L138.887 359.806L133.52 356.749L118.913 348.324V366.532L145.681 411.983V367.551C145.681 365.173 144.39 362.999 142.352 361.776L140.313 360.689Z" fill="white" stroke="#0E63E7" stroke-width="2.03818" stroke-miterlimit="10" stroke-linejoin="round"/>
<path d="M132.637 365.377L131.21 364.494L125.843 361.436L111.236 353.012V401.249L138.004 416.671V372.307C138.004 369.929 136.714 367.755 134.675 366.532L132.637 365.377Z" fill="#F0FFFB" stroke="#0E63E7" stroke-width="2.03818" stroke-miterlimit="10" stroke-linejoin="round"/>
<path d="M137.666 362.864H137.598L133.046 365.513L111.306 352.809L115.993 350.159L119.051 348.393L140.791 361.029L137.666 362.864Z" fill="white" stroke="#0E63E7" stroke-width="2.03818" stroke-miterlimit="10" stroke-linejoin="round"/>
<path d="M145.682 367.688V411.848L137.937 416.536V372.376L145.682 367.688Z" fill="#CDFAEF" stroke="#0E63E7" stroke-width="2.03818" stroke-miterlimit="10" stroke-linejoin="round"/>
<path d="M384.485 636.589V733.334V736.459C384.689 736.663 384.961 736.799 385.232 737.003C387.27 738.158 390.531 738.158 392.57 737.003C392.841 736.867 393.113 736.663 393.317 736.459V733.334V636.589H384.485Z" fill="white" stroke="#0E63E7" stroke-width="1.35878" stroke-miterlimit="10" stroke-linejoin="round"/>
<path d="M439.312 671.24L439.04 670.017C438.905 668.114 438.429 666.212 437.614 664.31L423.414 606.154L388.697 620.761L353.981 606.154L340.053 663.155C338.762 665.804 338.083 668.522 338.083 671.24C338.083 678.713 343.042 686.186 352.893 691.825C372.596 703.239 404.595 703.239 424.298 691.825C434.149 686.118 439.04 678.713 439.108 671.24C439.244 671.307 439.312 671.24 439.312 671.24Z" fill="white" stroke="#0E63E7" stroke-width="2.03818" stroke-miterlimit="10" stroke-linejoin="round"/>
<path d="M413.088 616.412C399.568 624.225 377.691 624.225 364.172 616.412C358.397 613.083 355.068 608.871 354.252 604.454C353.165 598.612 356.426 592.565 364.172 588.149C377.691 580.336 399.568 580.336 413.088 588.149C426.608 595.962 426.608 608.667 413.088 616.412Z" fill="#F0FFFB" stroke="#0E63E7" stroke-width="2.03818" stroke-miterlimit="10" stroke-linecap="round" stroke-linejoin="round"/>
<path d="M103.508 420.191C106.405 407.922 98.8074 395.627 86.5379 392.729C74.2685 389.832 61.9735 397.43 59.0763 409.699C56.1792 421.969 63.7769 434.264 76.0464 437.161C88.3158 440.058 100.611 432.46 103.508 420.191Z" fill="#37C9A5" stroke="#0E63E7" stroke-width="2.03818" stroke-miterlimit="10" stroke-linejoin="round"/>
<path d="M104.718 397.31L104.582 396.766C104.514 395.883 104.31 395 103.903 394.116L97.3126 367.145L81.211 373.938L65.1094 367.145L58.6552 393.573C58.0437 394.796 57.772 396.019 57.772 397.31C57.772 400.774 60.0819 404.239 64.6339 406.889C73.8056 412.188 88.6164 412.188 97.7202 406.889C102.272 404.239 104.582 400.774 104.582 397.377C104.718 397.31 104.718 397.31 104.718 397.31Z" fill="white" stroke="#0E63E7" stroke-width="2.03818" stroke-miterlimit="10" stroke-linejoin="round"/>
<path d="M92.557 371.899C86.3066 375.5 76.1157 375.5 69.8653 371.899C67.2157 370.337 65.6531 368.367 65.2455 366.396C64.702 363.679 66.2646 360.893 69.8653 358.855C76.1157 355.254 86.3066 355.254 92.557 358.855C98.8074 362.388 98.8074 368.231 92.557 371.899Z" fill="#F0FFFB" stroke="#0E63E7" stroke-width="2.03818" stroke-miterlimit="10" stroke-linecap="round" stroke-linejoin="round"/>
<path d="M1.17272 514.707L13.7415 604.931L14.1491 607.852C14.0132 608.056 13.8094 608.26 13.5377 608.463C11.8392 609.822 8.78192 610.23 6.74374 609.415C6.47199 609.279 6.2002 609.143 5.99639 609.007L5.58877 606.085L-6.97998 515.862L1.17272 514.707Z" fill="#37C9A5" stroke="#0E63E7" stroke-width="2.03818" stroke-miterlimit="10" stroke-linejoin="round"/>
<path d="M-16.4907 531.149C0.168922 531.149 13.6743 523.332 13.6743 513.689C13.6743 504.046 0.168922 496.229 -16.4907 496.229C-33.1504 496.229 -46.6558 504.046 -46.6558 513.689C-46.6558 523.332 -33.1504 531.149 -16.4907 531.149Z" fill="#CDFAEF" stroke="#0E63E7" stroke-width="2.03818" stroke-miterlimit="10" stroke-linejoin="round"/>
<path d="M-16.2867 526.394C0.372982 526.394 13.8783 518.577 13.8783 508.934C13.8783 499.291 0.372982 491.474 -16.2867 491.474C-32.9464 491.474 -46.4517 499.291 -46.4517 508.934C-46.4517 518.577 -32.9464 526.394 -16.2867 526.394Z" fill="white" stroke="#0E63E7" stroke-width="2.03818" stroke-miterlimit="10" stroke-linejoin="round"/>
</g>
<defs>
<clipPath id="clip0_813_42902">
<rect width="1316.93" height="916.635" fill="white" transform="translate(-435)"/>
</clipPath>
</defs>
<script xmlns=""/></svg>