<svg width="121" height="37" viewBox="0 0 121 37" fill="none" xmlns="http://www.w3.org/2000/svg">
<g clip-path="url(#clip0_1696_106862)">
<g clip-path="url(#clip1_1696_106862)">
<path d="M26.037 13.8525L14.6677 25.2387L10.7962 21.3623L6.78223 25.3796L14.6677 33.2764L30.0502 17.8722L26.037 13.8525Z" fill="white"/>
<path d="M86.0822 24.2901C84.8892 22.9533 84.2298 21.2242 84.2298 19.4325C84.2298 17.6407 84.8892 15.9116 86.0822 14.5748C86.6381 13.9461 87.3224 13.4439 88.0888 13.102C88.8553 12.7601 89.6861 12.5866 90.5253 12.5929C91.3286 12.5518 92.1302 12.7018 92.8643 13.0305C93.5984 13.3593 94.244 13.8575 94.7482 14.4842V12.9556H98.0894V25.9093H94.7482V24.3807C94.2439 25.0074 93.5983 25.5055 92.8642 25.8342C92.1301 26.163 91.3286 26.313 90.5253 26.272C89.6861 26.2785 88.8552 26.1049 88.0887 25.763C87.3223 25.4211 86.6381 24.9189 86.0822 24.2901ZM88.5831 16.8037C87.9317 17.5252 87.5711 18.4628 87.5711 19.4349C87.5711 20.407 87.9317 21.3445 88.5831 22.0661C88.917 22.4042 89.3172 22.6696 89.7586 22.8457C90.1999 23.0218 90.6729 23.1048 91.1479 23.0894C91.6245 23.1039 92.0991 23.0206 92.5423 22.8446C92.9855 22.6686 93.388 22.4036 93.7249 22.0661C94.3848 21.3488 94.7511 20.4096 94.7511 19.4349C94.7511 18.4601 94.3848 17.521 93.7249 16.8037C93.3879 16.4662 92.9855 16.2012 92.5423 16.0251C92.0991 15.849 91.6246 15.7654 91.1479 15.7795C90.6732 15.7646 90.2006 15.8478 89.7596 16.0238C89.3185 16.1999 88.9185 16.4651 88.5847 16.8029L88.5831 16.8037ZM67.0404 24.3038C66.069 23.3464 65.406 22.1203 65.1367 20.7832C64.8674 19.4461 65.004 18.0591 65.529 16.8002C66.054 15.5413 66.9434 14.4682 68.0829 13.7186C69.2224 12.9691 70.56 12.5773 71.9239 12.5938C73.1332 12.5803 74.3238 12.8939 75.3696 13.5013C76.3721 14.071 77.1902 14.9161 77.7271 15.9366L74.8514 17.6206C74.595 17.0886 74.1842 16.6462 73.6726 16.3511C73.1348 16.0372 72.5215 15.876 71.8988 15.8848C71.4378 15.8707 70.9788 15.9521 70.5507 16.1237C70.1226 16.2953 69.7345 16.5536 69.4109 16.8822C68.7776 17.5761 68.4265 18.4817 68.4265 19.4211C68.4265 20.3606 68.7776 21.2661 69.4109 21.96C69.7347 22.2885 70.1227 22.5465 70.5508 22.718C70.9789 22.8895 71.4378 22.9707 71.8988 22.9567C72.5286 22.9679 73.15 22.8114 73.6993 22.5033C74.2124 22.2159 74.6241 21.7771 74.8781 21.2468L77.7797 22.9048C77.2113 23.9227 76.379 24.7684 75.3704 25.3531C74.0554 26.1037 72.5323 26.407 71.0301 26.2172C69.5279 26.0273 68.1281 25.3547 67.0412 24.3006L67.0404 24.3038ZM52.5971 24.3297C51.612 23.3742 50.9373 22.1443 50.661 20.8C50.3846 19.4557 50.5194 18.0593 51.0477 16.7927C51.576 15.5261 52.4734 14.4478 53.6231 13.6984C54.7728 12.9489 56.1214 12.5628 57.4935 12.5905C58.3723 12.5652 59.2463 12.7278 60.0572 13.0673C60.8681 13.4069 61.5972 13.9156 62.1957 14.5595C63.4321 15.875 64.098 17.6262 64.0481 19.4308C64.0457 19.8925 64.0027 20.3531 63.9194 20.8072H54.1515C54.6 22.4274 55.8174 23.2376 57.8036 23.2376C58.3561 23.2728 58.9089 23.1733 59.4145 22.9477C59.9201 22.722 60.3633 22.377 60.7061 21.9422L63.3996 23.4967C62.7749 24.4042 61.9273 25.1359 60.9383 25.6214C59.9492 26.1068 58.8519 26.3298 57.7518 26.2687C56.8059 26.3125 55.861 26.163 54.9747 25.8295C54.0885 25.496 53.2795 24.9862 52.5971 24.3297ZM55.2688 16.2855C54.6612 16.7704 54.2454 17.4553 54.0956 18.2181H60.702C60.5723 17.436 60.1511 16.7322 59.5232 16.2483C58.933 15.8185 58.2196 15.5912 57.4895 15.6006C56.692 15.5696 55.9077 15.8109 55.2655 16.2847L55.2688 16.2855ZM36.7807 24.2901C35.5877 22.9533 34.9283 21.2242 34.9283 19.4325C34.9283 17.6407 35.5877 15.9116 36.7807 14.5748C37.3406 13.9442 38.0292 13.4409 38.8002 13.0991C39.5711 12.7572 40.4064 12.5846 41.2497 12.5929C42.0495 12.5499 42.8479 12.6992 43.5781 13.0282C44.3084 13.3573 44.9491 13.8565 45.4467 14.4842V7.77419H48.7887V25.9093H45.4467V24.3807C44.949 25.0082 44.3082 25.5074 43.578 25.8364C42.8478 26.1654 42.0494 26.3148 41.2497 26.272C40.4064 26.2804 39.5711 26.1079 38.8001 25.766C38.0292 25.4241 37.3405 24.9208 36.7807 24.2901ZM39.2905 16.8037C38.6315 17.5215 38.2659 18.4605 38.2659 19.4349C38.2659 20.4093 38.6315 21.3483 39.2905 22.0661C39.6275 22.4037 40.0301 22.6686 40.4734 22.8446C40.9168 23.0206 41.3914 23.1039 41.8682 23.0894C42.3432 23.1047 42.8161 23.0216 43.2575 22.8455C43.6988 22.6694 44.099 22.4041 44.433 22.0661C45.084 21.3443 45.4442 20.4068 45.4442 19.4349C45.4442 18.4629 45.084 17.5255 44.433 16.8037C44.099 16.4657 43.6988 16.2003 43.2575 16.0241C42.8161 15.8479 42.3432 15.7646 41.8682 15.7795C41.392 15.7657 40.918 15.8494 40.4753 16.0253C40.0326 16.2013 39.6305 16.4659 39.2937 16.8029L39.2905 16.8037ZM100.81 25.7012C100.494 25.3834 100.317 24.9531 100.318 24.5049C100.319 24.0567 100.498 23.6273 100.816 23.3113C101.134 22.9952 101.564 22.8183 102.012 22.8195C102.461 22.8207 102.89 23 103.206 23.3177C103.513 23.6384 103.685 24.0654 103.685 24.5095C103.685 24.9536 103.513 25.3805 103.206 25.7012C102.888 26.0176 102.457 26.1952 102.008 26.1952C101.559 26.1952 101.128 26.0176 100.81 25.7012ZM114.204 25.9093V12.9556H116.458V15.1319C116.798 14.3605 117.37 13.7142 118.094 13.2825C118.818 12.8508 119.659 12.6551 120.499 12.7225V15.08C119.472 15.0039 118.455 15.3182 117.649 15.9601C117.227 16.3476 116.899 16.8276 116.693 17.3625C116.486 17.8974 116.405 18.4728 116.458 19.0438V25.9093H114.204ZM107.338 25.9093V15.1319H105.262V12.9556H107.336V12.567C107.283 11.8397 107.387 11.1095 107.639 10.4253C107.891 9.74115 108.287 9.11881 108.8 8.59999C109.383 8.12508 110.058 7.77621 110.782 7.57541C111.507 7.37461 112.265 7.32624 113.01 7.43335V9.60956C110.73 9.42011 109.59 10.4049 109.59 12.5638V12.9524H113.01V15.1286H109.59V25.9093H107.338ZM79.0225 25.9093V6.99697H82.3661V25.9093H79.0225ZM0.5 19.1297L4.93986 14.6825V3.73832H10.6144V9.00074L15.8824 3.72618L23.7663 11.6206L19.754 15.6395L15.8824 11.7623L4.51239 23.1477L0.5 19.1297Z" fill="white"/>
</g>
</g>
<defs>
<clipPath id="clip0_1696_106862">
<rect width="120" height="37" fill="white" transform="translate(0.5)"/>
</clipPath>
<clipPath id="clip1_1696_106862">
<rect width="120" height="29.5497" fill="white" transform="translate(0.5 3.72517)"/>
</clipPath>
</defs>
</svg>
