<svg width="25" height="24" viewBox="0 0 25 24" fill="none" xmlns="http://www.w3.org/2000/svg">
<g opacity="0.5">
<path d="M8 8V9.5M17 8V9.5M11 12.6001C11.8 12.6001 12.5 11.9001 12.5 11.1001V8.29296M15.709 15.6392C13.909 17.4392 11.009 17.4392 9.20896 15.6392M15.5 3C17.4768 3.00154 18.5129 3.02675 19.3161 3.43597C20.0687 3.81947 20.6806 4.43139 21.0641 5.18404C21.4733 5.98717 21.4985 7.0233 21.5 9M15.5 21C17.4768 20.9985 18.5129 20.9732 19.3161 20.564C20.0687 20.1805 20.6806 19.5686 21.0641 18.816C21.4733 18.0128 21.4985 16.9767 21.5 15M9.5 21C7.52324 20.9985 6.48709 20.9732 5.68394 20.564C4.93129 20.1805 4.31937 19.5686 3.93588 18.816C3.52666 18.0128 3.50154 16.9767 3.5 15M3.5 9C3.50154 7.0233 3.52593 5.98717 3.93514 5.18404C4.31864 4.43139 4.93056 3.81947 5.68321 3.43597C6.48645 3.0267 7.52276 3.00164 9.5 3.0001" stroke="currentColor" stroke-width="1.3" stroke-linecap="round" stroke-linejoin="round"/>
</g>
<script xmlns=""/></svg>